<svg xmlns="http://www.w3.org/2000/svg" viewBox="0 0 566.97 85.04"><defs><style>.cls-1{fill:#eec469;}.cls-2{fill:#f2e080;}.cls-3{fill:#d8b158;}.cls-4{fill:#df854a;}.cls-5{fill:#c95940;}.cls-6{fill:#a43732;}.cls-7{fill:#cecece;}</style></defs><g id="Layer_2" data-name="Layer 2"><g id="Layer_1-2" data-name="Layer 1"><rect class="cls-1" x="311.82" y="14.17" width="14.18" height="14.18"/><polygon class="cls-2" points="340.18 0 326 0 326 14.17 340.18 14.17 354.35 14.17 354.35 0 340.18 0"/><rect class="cls-1" x="354.35" y="14.17" width="14.18" height="14.18"/><rect class="cls-3" x="354.35" y="28.35" width="14.18" height="14.17"/><rect class="cls-4" x="354.35" y="42.52" width="14.18" height="14.18"/><rect class="cls-5" x="354.35" y="56.7" width="14.18" height="14.17"/><polygon class="cls-6" points="340.18 70.87 326 70.87 326 85.04 340.18 85.04 354.35 85.04 354.35 70.87 340.18 70.87"/><rect class="cls-5" x="311.82" y="56.7" width="14.18" height="14.17"/><rect class="cls-4" x="311.82" y="42.52" width="14.18" height="14.18"/><rect class="cls-3" x="311.82" y="28.35" width="14.18" height="14.17"/><rect class="cls-1" y="14.17" width="14.18" height="14.18"/><polygon class="cls-2" points="28.35 0 14.18 0 14.18 14.17 28.35 14.17 42.53 14.17 42.53 0 28.35 0"/><rect class="cls-1" x="42.53" y="14.17" width="14.18" height="14.18"/><rect class="cls-5" x="42.53" y="56.7" width="14.18" height="14.17"/><polygon class="cls-4" points="42.53 42.52 28.35 42.52 28.35 56.7 42.53 56.7 56.71 56.7 56.71 42.52 42.53 42.52"/><polygon class="cls-6" points="28.35 70.87 14.18 70.87 14.18 85.04 28.35 85.04 42.53 85.04 42.53 70.87 28.35 70.87"/><rect class="cls-5" y="56.7" width="14.18" height="14.17"/><rect class="cls-4" y="42.52" width="14.18" height="14.18"/><rect class="cls-3" y="28.35" width="14.18" height="14.17"/><rect class="cls-1" x="70.88" y="14.17" width="14.16" height="14.18"/><polygon class="cls-2" points="99.22 0 85.04 0 85.04 14.17 99.22 14.17 113.39 14.17 113.39 0 99.22 0"/><rect class="cls-1" x="113.39" y="14.17" width="14.18" height="14.18"/><rect class="cls-3" x="113.39" y="28.35" width="14.18" height="14.17"/><rect class="cls-4" x="113.39" y="42.52" width="14.18" height="14.18"/><rect class="cls-6" x="113.39" y="70.87" width="14.18" height="14.17"/><rect class="cls-6" x="70.88" y="70.87" width="14.16" height="14.17"/><polygon class="cls-5" points="113.39 56.7 99.22 56.7 85.04 56.7 70.88 56.7 70.88 70.87 85.04 70.87 99.22 70.87 113.39 70.87 127.57 70.87 127.57 56.7 113.39 56.7"/><rect class="cls-4" x="70.88" y="42.52" width="14.16" height="14.18"/><rect class="cls-3" x="70.88" y="28.35" width="14.16" height="14.17"/><rect class="cls-1" x="141.75" y="14.17" width="14.17" height="14.18"/><rect class="cls-2" x="155.92" width="14.18" height="14.17"/><rect class="cls-2" x="184.26" width="14.17" height="14.17"/><rect class="cls-1" x="170.1" y="14.17" width="14.16" height="14.18"/><rect class="cls-7" x="198.44" y="14.17" width="14.18" height="14.18"/><rect class="cls-3" x="170.1" y="28.35" width="14.16" height="14.17"/><rect class="cls-4" x="170.1" y="42.52" width="14.16" height="14.18"/><rect class="cls-5" x="170.1" y="56.7" width="14.16" height="14.17"/><rect class="cls-1" x="198.44" y="14.17" width="14.18" height="14.18"/><rect class="cls-3" x="198.44" y="28.35" width="14.18" height="14.17"/><rect class="cls-4" x="198.44" y="42.52" width="14.18" height="14.18"/><rect class="cls-5" x="198.44" y="56.7" width="14.18" height="14.17"/><rect class="cls-6" x="198.44" y="70.87" width="14.18" height="14.17"/><rect class="cls-6" x="141.75" y="70.87" width="14.17" height="14.17"/><rect class="cls-5" x="141.75" y="56.7" width="14.17" height="14.17"/><rect class="cls-4" x="141.75" y="42.52" width="14.17" height="14.18"/><rect class="cls-3" x="141.75" y="28.35" width="14.17" height="14.17"/><rect class="cls-6" x="396.87" y="70.87" width="14.18" height="14.17"/><rect class="cls-4" x="382.7" y="42.52" width="14.17" height="14.18"/><rect class="cls-5" x="382.7" y="56.7" width="14.17" height="14.17"/><rect class="cls-3" x="382.7" y="28.35" width="14.17" height="14.17"/><rect class="cls-1" x="382.7" y="14.17" width="14.17" height="14.18"/><rect class="cls-2" x="382.7" width="14.17" height="14.17"/><rect class="cls-2" x="425.22" width="14.17" height="14.17"/><rect class="cls-1" x="425.22" y="14.17" width="14.17" height="14.18"/><rect class="cls-3" x="425.22" y="28.35" width="14.17" height="14.17"/><rect class="cls-5" x="411.04" y="56.7" width="14.18" height="14.17"/><rect class="cls-4" x="425.22" y="42.52" width="14.17" height="14.18"/><rect class="cls-1" x="226.79" y="14.17" width="14.17" height="14.18"/><polygon class="cls-2" points="255.14 0 240.96 0 226.79 0 226.79 14.17 240.96 14.17 255.14 14.17 269.31 14.17 269.31 0 255.14 0"/><rect class="cls-3" x="240.96" y="28.35" width="14.18" height="14.17"/><polygon class="cls-6" points="255.14 70.87 240.96 70.87 226.79 70.87 226.79 85.04 240.96 85.04 255.14 85.04 269.31 85.04 269.31 70.87 255.14 70.87"/><rect class="cls-5" x="226.79" y="56.7" width="14.17" height="14.17"/><rect class="cls-4" x="226.79" y="42.52" width="14.17" height="14.18"/><rect class="cls-3" x="226.79" y="28.35" width="14.17" height="14.17"/><rect class="cls-1" x="453.57" y="14.17" width="14.18" height="14.18"/><polygon class="cls-2" points="481.91 0 467.75 0 453.57 0 453.57 14.17 467.75 14.17 481.91 14.17 496.08 14.17 496.08 0 481.91 0"/><rect class="cls-3" x="467.75" y="28.35" width="14.15" height="14.17"/><polygon class="cls-6" points="481.91 70.87 467.75 70.87 453.57 70.87 453.57 85.04 467.75 85.04 481.91 85.04 496.08 85.04 496.08 70.87 481.91 70.87"/><rect class="cls-5" x="453.57" y="56.7" width="14.18" height="14.17"/><rect class="cls-4" x="453.57" y="42.52" width="14.18" height="14.18"/><rect class="cls-3" x="453.57" y="28.35" width="14.18" height="14.17"/><rect class="cls-1" x="510.26" y="14.17" width="14.17" height="14.18"/><polygon class="cls-2" points="538.62 0 524.44 0 510.26 0 510.26 14.17 524.44 14.17 538.62 14.17 552.79 14.17 552.79 0 538.62 0"/><rect class="cls-1" x="552.79" y="14.17" width="14.17" height="14.18"/><rect class="cls-5" x="552.79" y="56.7" width="14.17" height="14.17"/><rect class="cls-6" x="552.79" y="70.87" width="14.17" height="14.17"/><rect class="cls-3" x="552.79" y="28.35" width="14.17" height="14.17"/><rect class="cls-6" x="510.26" y="70.87" width="14.17" height="14.17"/><rect class="cls-5" x="510.26" y="56.7" width="14.17" height="14.17"/><polygon class="cls-4" points="538.62 42.52 524.44 42.52 510.26 42.52 510.26 56.7 524.44 56.7 538.62 56.7 552.79 56.7 552.79 42.52 538.62 42.52"/><rect class="cls-3" x="510.26" y="28.35" width="14.17" height="14.17"/></g></g></svg>