<svg viewBox="0 0 84.47 119.01" xmlns="http://www.w3.org/2000/svg"><path d="m79.5 49.59h4.97v4.95h-4.97z" fill="#1d71b8"/><path d="m79.5 34.71h4.97v4.96h-4.97z" fill="#1d71b8"/><path d="m79.5 29.75h4.97v4.96h-4.97z" fill="#1d71b8"/><path d="m74.54 49.59h4.96v4.95h-4.96z" fill="#1d71b8"/><path d="m74.54 44.63h4.96v4.96h-4.96z" fill="#1d71b8"/><path d="m74.54 29.75h4.96v4.96h-4.96z" fill="#1d71b8"/><path d="m74.54 24.79h4.96v4.96h-4.96z" fill="#1d71b8"/><path d="m69.57 114.05h4.97v4.96h-4.97z" fill="#17b1a0"/><path d="m69.57 49.59h4.97v4.95h-4.97z" fill="#1d71b8"/><path d="m69.57 44.63h4.97v4.96h-4.97z" fill="#1d71b8"/><path d="m69.57 39.67h4.97v4.96h-4.97z" fill="#1d71b8"/><path d="m69.57 29.75h4.97v4.96h-4.97z" fill="#1d71b8"/><path d="m69.57 24.79h4.97v4.96h-4.97z" fill="#1d71b8"/><path d="m64.6 114.05h4.97v4.96h-4.97z" fill="#17b1a0"/><path d="m64.6 109.09h4.97v4.96h-4.97z" fill="#17b1a0"/><path d="m64.6 89.25h4.97v4.96h-4.97z" fill="#fab492"/><path d="m64.6 79.34h4.97v4.96h-4.97z" fill="#17b1a0"/><path d="m64.6 69.42h4.97v4.96h-4.97z" fill="#17b1a0"/><path d="m64.6 49.59h4.97v4.95h-4.97z" fill="#1d71b8"/><path d="m64.6 44.63h4.97v4.96h-4.97z" fill="#1d71b8"/><path d="m64.6 39.67h4.97v4.96h-4.97z" fill="#1d71b8"/><path d="m64.6 34.71h4.97v4.96h-4.97z" fill="#3b4563"/><path d="m64.6 29.75h4.97v4.96h-4.97z" fill="#1d71b8"/><path d="m64.6 24.79h4.97v4.96h-4.97z" fill="#1d71b8"/><path d="m64.6 19.83h4.97v4.96h-4.97z" fill="#1d71b8"/><path d="m64.6 14.87h4.97v4.96h-4.97z" fill="#1d71b8"/><path d="m59.63 114.05h4.97v4.96h-4.97z" fill="#3b4563"/><path d="m59.63 109.09h4.97v4.96h-4.97z" fill="#17b1a0"/><path d="m59.63 104.13h4.97v4.96h-4.97z" fill="#17b1a0"/><path d="m59.63 99.17h4.97v4.96h-4.97z" fill="#17b1a0"/><path d="m59.63 94.21h4.97v4.96h-4.97z" fill="#fab492"/><path d="m59.63 89.25h4.97v4.96h-4.97z" fill="#fab492"/><path d="m59.63 84.3h4.97v4.95h-4.97z" fill="#fab492"/><path d="m59.63 79.34h4.97v4.96h-4.97z" fill="#17b1a0"/><path d="m59.63 74.38h4.97v4.96h-4.97z" fill="#17b1a0"/><path d="m59.63 69.42h4.97v4.96h-4.97z" fill="#17b1a0"/><path d="m59.63 64.46h4.97v4.96h-4.97z" fill="#b9b9b9"/><path d="m59.63 59.5h4.97v4.96h-4.97z" fill="#b9b9b9"/><path d="m59.63 54.54h4.97v4.96h-4.97z" fill="#b9b9b9"/><path d="m59.63 49.59h4.97v4.95h-4.97z" fill="#b9b9b9"/><path d="m59.63 44.63h4.97v4.96h-4.97z" fill="#1d71b8"/><path d="m59.63 39.67h4.97v4.96h-4.97z" fill="#1d71b8"/><path d="m59.63 34.71h4.97v4.96h-4.97z" fill="#3b4563"/><path d="m59.63 29.75h4.97v4.96h-4.97z" fill="#1d71b8"/><path d="m59.63 24.79h4.97v4.96h-4.97z" fill="#1d71b8"/><path d="m59.63 19.83h4.97v4.96h-4.97z" fill="#1d71b8"/><path d="m59.63 14.87h4.97v4.96h-4.97z" fill="#1d71b8"/><path d="m59.63 9.92h4.97v4.95h-4.97z" fill="#1d71b8"/><path d="m54.66 114.05h4.97v4.96h-4.97z" fill="#3b4563"/><path d="m54.66 109.09h4.97v4.96h-4.97z" fill="#3b4563"/><path d="m54.66 104.13h4.97v4.96h-4.97z" fill="#17b1a0"/><path d="m54.66 99.17h4.97v4.96h-4.97z" fill="#17b1a0"/><path d="m54.66 94.21h4.97v4.96h-4.97z" fill="#17b1a0"/><path d="m54.66 89.25h4.97v4.96h-4.97z" fill="#17b1a0"/><path d="m54.66 84.3h4.97v4.95h-4.97z" fill="#17b1a0"/><path d="m54.66 79.34h4.97v4.96h-4.97z" fill="#17b1a0"/><path d="m54.66 74.38h4.97v4.96h-4.97z" fill="#17b1a0"/><path d="m54.66 69.42h4.97v4.96h-4.97z" fill="#b9b9b9"/><path d="m54.66 64.46h4.97v4.96h-4.97z" fill="#b9b9b9"/><path d="m54.66 59.5h4.97v4.96h-4.97z" fill="#fab492"/><path d="m54.66 54.54h4.97v4.96h-4.97z" fill="#fab492"/><path d="m54.66 49.59h4.97v4.95h-4.97z" fill="#fab492"/><path d="m54.66 44.63h4.97v4.96h-4.97z" fill="#fab492"/><path d="m54.66 39.67h4.97v4.96h-4.97z" fill="#1d71b8"/><path d="m54.66 34.71h4.97v4.96h-4.97z" fill="#3b4563"/><path d="m54.66 29.75h4.97v4.96h-4.97z" fill="#1d71b8"/><path d="m54.66 24.79h4.97v4.96h-4.97z" fill="#1d71b8"/><path d="m54.66 19.83h4.97v4.96h-4.97z" fill="#1d71b8"/><path d="m54.66 14.87h4.97v4.96h-4.97z" fill="#1d71b8"/><path d="m54.66 9.92h4.97v4.95h-4.97z" fill="#1d71b8"/><path d="m54.66 4.96h4.97v4.96h-4.97z" fill="#1d71b8"/><path d="m49.69 114.05h4.97v4.96h-4.97z" fill="#3b4563"/><path d="m49.69 109.09h4.97v4.96h-4.97z" fill="#5c6984"/><path d="m49.69 104.13h4.97v4.96h-4.97z" fill="#3b4563"/><path d="m49.69 99.17h4.97v4.96h-4.97z" fill="#3b4563"/><path d="m49.69 94.21h4.97v4.96h-4.97z" fill="#3b4563"/><path d="m49.69 89.25h4.97v4.96h-4.97z" fill="#b9b9b9"/><path d="m49.69 84.3h4.97v4.95h-4.97z" fill="#17b1a0"/><path d="m49.69 79.34h4.97v4.96h-4.97z" fill="#b9b9b9"/><path d="m49.69 74.38h4.97v4.96h-4.97z" fill="#b9b9b9"/><path d="m49.69 69.42h4.97v4.96h-4.97z" fill="#b9b9b9"/><path d="m49.69 64.46h4.97v4.96h-4.97z" fill="#b9b9b9"/><path d="m49.69 59.5h4.97v4.96h-4.97z" fill="#b9b9b9"/><path d="m49.69 54.54h4.97v4.96h-4.97z" fill="#fab492"/><path d="m49.69 49.59h4.97v4.95h-4.97z" fill="#fab492"/><path d="m49.69 44.63h4.97v4.96h-4.97z" fill="#203444"/><path d="m49.69 39.67h4.97v4.96h-4.97z" fill="#1d71b8"/><path d="m49.69 34.71h4.97v4.96h-4.97z" fill="#3b4563"/><path d="m49.69 29.75h4.97v4.96h-4.97z" fill="#3b4563"/><path d="m49.69 24.79h4.97v4.96h-4.97z" fill="#1d71b8"/><path d="m49.69 19.83h4.97v4.96h-4.97z" fill="#1d71b8"/><path d="m49.69 14.87h4.97v4.96h-4.97z" fill="#1d71b8"/><path d="m49.69 9.92h4.97v4.95h-4.97z" fill="#1d71b8"/><path d="m49.69 4.96h4.97v4.96h-4.97z" fill="#1d71b8"/><path d="m44.72 114.05h4.97v4.96h-4.97z" fill="#3b4563"/><path d="m44.72 109.09h4.97v4.96h-4.97z" fill="#5c6984"/><path d="m44.72 104.13h4.97v4.96h-4.97z" fill="#5c6984"/><path d="m44.72 99.17h4.97v4.96h-4.97z" fill="#5c6984"/><path d="m44.72 94.21h4.97v4.96h-4.97z" fill="#5c6984"/><path d="m44.72 89.25h4.97v4.96h-4.97z" fill="#b9b9b9"/><path d="m44.72 84.3h4.97v4.95h-4.97z" fill="#b9b9b9"/><path d="m44.72 79.34h4.97v4.96h-4.97z" fill="#b9b9b9"/><path d="m44.72 74.38h4.97v4.96h-4.97z" fill="#b9b9b9"/><path d="m44.72 69.42h4.97v4.96h-4.97z" fill="#b9b9b9"/><path d="m44.72 64.46h4.97v4.96h-4.97z" fill="#b9b9b9"/><path d="m44.72 59.5h4.97v4.96h-4.97z" fill="#b9b9b9"/><path d="m44.72 54.54h4.97v4.96h-4.97z" fill="#fab492"/><path d="m44.72 49.59h4.97v4.95h-4.97z" fill="#fab492"/><path d="m44.72 44.63h4.97v4.96h-4.97z" fill="#fab492"/><path d="m44.72 39.67h4.97v4.96h-4.97z" fill="#1d71b8"/><path d="m44.72 34.71h4.97v4.96h-4.97z" fill="#3b4563"/><path d="m44.72 29.75h4.97v4.96h-4.97z" fill="#3b4563"/><path d="m44.72 24.79h4.97v4.96h-4.97z" fill="#1d71b8"/><path d="m44.72 19.83h4.97v4.96h-4.97z" fill="#1d71b8"/><path d="m44.72 14.87h4.97v4.96h-4.97z" fill="#1d71b8"/><path d="m44.72 9.92h4.97v4.95h-4.97z" fill="#1d71b8"/><path d="m44.72 4.96h4.97v4.96h-4.97z" fill="#1d71b8"/><path d="m39.75 114.05h4.97v4.96h-4.97z" fill="#3b4563"/><path d="m39.75 109.09h4.97v4.96h-4.97z" fill="#5c6984"/><path d="m39.75 104.13h4.97v4.96h-4.97z" fill="#5c6984"/><path d="m39.75 99.17h4.97v4.96h-4.97z" fill="#3b4563"/><path d="m39.75 94.21h4.97v4.96h-4.97z" fill="#3b4563"/><path d="m39.75 89.25h4.97v4.96h-4.97z" fill="#3b4563"/><path d="m39.75 84.3h4.97v4.95h-4.97z" fill="#b9b9b9"/><path d="m39.75 79.34h4.97v4.96h-4.97z" fill="#b9b9b9"/><path d="m39.75 74.38h4.97v4.96h-4.97z" fill="#b9b9b9"/><path d="m39.75 69.42h4.97v4.96h-4.97z" fill="#b9b9b9"/><path d="m39.75 64.46h4.97v4.96h-4.97z" fill="#b9b9b9"/><path d="m39.75 59.5h4.97v4.96h-4.97z" fill="#b9b9b9"/><path d="m39.75 54.54h4.97v4.96h-4.97z" fill="#fab492"/><path d="m39.75 49.59h4.97v4.95h-4.97z" fill="#fab492"/><path d="m39.75 44.63h4.97v4.96h-4.97z" fill="#fab492"/><path d="m39.75 39.67h4.97v4.96h-4.97z" fill="#1d71b8"/><path d="m39.75 34.71h4.97v4.96h-4.97z" fill="#3b4563"/><path d="m39.75 29.75h4.97v4.96h-4.97z" fill="#3b4563"/><path d="m39.75 24.79h4.97v4.96h-4.97z" fill="#1d71b8"/><path d="m39.75 19.83h4.97v4.96h-4.97z" fill="#1d71b8"/><path d="m39.75 14.87h4.97v4.96h-4.97z" fill="#1d71b8"/><path d="m39.75 9.92h4.97v4.95h-4.97z" fill="#1d71b8"/><path d="m34.78 114.05h4.97v4.96h-4.97z" fill="#3b4563"/><path d="m34.78 109.09h4.97v4.96h-4.97z" fill="#3b4563"/><path d="m34.78 104.13h4.97v4.96h-4.97z" fill="#3b4563"/><path d="m34.78 99.17h4.97v4.96h-4.97z" fill="#3b4563"/><path d="m34.78 94.21h4.97v4.96h-4.97z" fill="#17b1a0"/><path d="m34.78 89.25h4.97v4.96h-4.97z" fill="#17b1a0"/><path d="m34.78 84.3h4.97v4.95h-4.97z" fill="#17b1a0"/><path d="m34.78 79.34h4.97v4.96h-4.97z" fill="#b9b9b9"/><path d="m34.78 74.38h4.97v4.96h-4.97z" fill="#b9b9b9"/><path d="m34.78 69.42h4.97v4.96h-4.97z" fill="#b9b9b9"/><path d="m34.78 64.46h4.97v4.96h-4.97z" fill="#b9b9b9"/><path d="m34.78 59.5h4.97v4.96h-4.97z" fill="#b9b9b9"/><path d="m34.78 54.54h4.97v4.96h-4.97z" fill="#fab492"/><path d="m34.78 49.59h4.97v4.95h-4.97z" fill="#fab492"/><path d="m34.78 44.63h4.97v4.96h-4.97z" fill="#203444"/><path d="m34.78 39.67h4.97v4.96h-4.97z" fill="#1d71b8"/><path d="m34.78 34.71h4.97v4.96h-4.97z" fill="#3b4563"/><path d="m34.78 29.75h4.97v4.96h-4.97z" fill="#1d71b8"/><path d="m34.78 24.79h4.97v4.96h-4.97z" fill="#1d71b8"/><path d="m34.78 19.83h4.97v4.96h-4.97z" fill="#1d71b8"/><path d="m34.78 14.87h4.97v4.96h-4.97z" fill="#1d71b8"/><path d="m34.78 9.92h4.97v4.95h-4.97z" fill="#1d71b8"/><path d="m29.81 114.05h4.97v4.96h-4.97z" fill="#3b4563"/><path d="m29.81 109.09h4.97v4.96h-4.97z" fill="#17b1a0"/><path d="m29.81 104.13h4.97v4.96h-4.97z" fill="#17b1a0"/><path d="m29.81 99.17h4.97v4.96h-4.97z" fill="#17b1a0"/><path d="m29.81 94.21h4.97v4.96h-4.97z" fill="#17b1a0"/><path d="m29.81 89.25h4.97v4.96h-4.97z" fill="#17b1a0"/><path d="m29.81 84.3h4.97v4.95h-4.97z" fill="#17b1a0"/><path d="m29.81 79.34h4.97v4.96h-4.97z" fill="#17b1a0"/><path d="m29.81 74.38h4.97v4.96h-4.97z" fill="#17b1a0"/><path d="m29.81 69.42h4.97v4.96h-4.97z" fill="#b9b9b9"/><path d="m29.81 64.46h4.97v4.96h-4.97z" fill="#b9b9b9"/><path d="m29.81 59.5h4.97v4.96h-4.97z" fill="#fab492"/><path d="m29.81 54.54h4.97v4.96h-4.97z" fill="#fab492"/><path d="m29.81 49.59h4.97v4.95h-4.97z" fill="#fab492"/><path d="m29.81 44.63h4.97v4.96h-4.97z" fill="#fab492"/><path d="m29.81 39.67h4.97v4.96h-4.97z" fill="#1d71b8"/><path d="m29.81 34.71h4.97v4.96h-4.97z" fill="#3b4563"/><path d="m29.81 29.75h4.97v4.96h-4.97z" fill="#1d71b8"/><path d="m29.81 24.79h4.97v4.96h-4.97z" fill="#1d71b8"/><path d="m29.81 19.83h4.97v4.96h-4.97z" fill="#1d71b8"/><path d="m29.81 14.87h4.97v4.96h-4.97z" fill="#1d71b8"/><path d="m24.85 114.05h4.96v4.96h-4.96z" fill="#17b1a0"/><path d="m24.85 109.09h4.96v4.96h-4.96z" fill="#17b1a0"/><path d="m24.85 99.17h4.96v4.96h-4.96z" fill="#17b1a0"/><path d="m24.85 94.21h4.96v4.96h-4.96z" fill="#17b1a0"/><path d="m24.85 89.25h4.96v4.96h-4.96z" fill="#17b1a0"/><path d="m24.85 84.3h4.96v4.95h-4.96z" fill="#17b1a0"/><path d="m24.85 79.34h4.96v4.96h-4.96z" fill="#17b1a0"/><path d="m24.85 74.38h4.96v4.96h-4.96z" fill="#17b1a0"/><path d="m24.85 69.42h4.96v4.96h-4.96z" fill="#17b1a0"/><path d="m24.85 64.46h4.96v4.96h-4.96z" fill="#b9b9b9"/><path d="m24.85 59.5h4.96v4.96h-4.96z" fill="#b9b9b9"/><path d="m24.85 54.54h4.96v4.96h-4.96z" fill="#b9b9b9"/><path d="m24.85 49.59h4.96v4.95h-4.96z" fill="#fab492"/><path d="m24.85 44.63h4.96v4.96h-4.96z" fill="#1d71b8"/><path d="m24.85 39.67h4.96v4.96h-4.96z" fill="#1d71b8"/><path d="m24.85 34.71h4.96v4.96h-4.96z" fill="#3b4563"/><path d="m24.85 29.75h4.96v4.96h-4.96z" fill="#1d71b8"/><path d="m24.85 24.79h4.96v4.96h-4.96z" fill="#1d71b8"/><path d="m19.88 114.05h4.97v4.96h-4.97z" fill="#17b1a0"/><path d="m19.88 94.21h4.97v4.96h-4.97z" fill="#17b1a0"/><path d="m19.88 89.25h4.97v4.96h-4.97z" fill="#fab492"/><path d="m19.88 84.3h4.97v4.95h-4.97z" fill="#17b1a0"/><path d="m19.88 69.42h4.97v4.96h-4.97z" fill="#17b1a0"/><path d="m19.88 49.59h4.97v4.95h-4.97z" fill="#1d71b8"/><path d="m19.88 44.63h4.97v4.96h-4.97z" fill="#1d71b8"/><path d="m19.88 39.67h4.97v4.96h-4.97z" fill="#1d71b8"/><path d="m19.88 34.71h4.97v4.96h-4.97z" fill="#3b4563"/><path d="m19.88 9.92h4.97v4.95h-4.97z" fill="#5c519d"/><path d="m14.91 114.05h4.97v4.96h-4.97z" fill="#17b1a0"/><path d="m14.91 94.21h4.97v4.96h-4.97z" fill="#fab492"/><path d="m14.91 89.25h4.97v4.96h-4.97z" fill="#fab492"/><path d="m14.91 84.3h4.97v4.95h-4.97z" fill="#fab492"/><path d="m14.91 49.59h4.97v4.95h-4.97z" fill="#1d71b8"/><path d="m14.91 44.63h4.97v4.96h-4.97z" fill="#1d71b8"/><path d="m14.91 39.67h4.97v4.96h-4.97z" fill="#1d71b8"/><path d="m14.91 19.83h4.97v4.96h-4.97z" fill="#666"/><path d="m14.91 14.87h4.97v4.96h-4.97z" fill="#5c519d"/><path d="m14.91 9.92h4.97v4.95h-4.97z" fill="#1d71b8"/><path d="m14.91 4.96h4.97v4.96h-4.97z" fill="#5c519d"/><path d="m9.94 114.05h4.97v4.96h-4.97z" fill="#666"/><path d="m9.94 109.09h4.97v4.96h-4.97z" fill="#666"/><path d="m9.94 104.13h4.97v4.96h-4.97z" fill="#666"/><path d="m9.94 99.17h4.97v4.96h-4.97z" fill="#666"/><path d="m9.94 94.21h4.97v4.96h-4.97z" fill="#666"/><path d="m9.94 89.25h4.97v4.96h-4.97z" fill="#fab492"/><g fill="#666"><path d="m9.94 84.3h4.97v4.95h-4.97z"/><path d="m9.94 79.34h4.97v4.96h-4.97z"/><path d="m9.94 74.38h4.97v4.96h-4.97z"/><path d="m9.94 69.42h4.97v4.96h-4.97z"/><path d="m9.94 64.46h4.97v4.96h-4.97z"/><path d="m9.94 59.5h4.97v4.96h-4.97z"/><path d="m9.94 54.54h4.97v4.96h-4.97z"/><path d="m9.94 49.59h4.97v4.95h-4.97z"/><path d="m9.94 44.63h4.97v4.96h-4.97z"/><path d="m9.94 39.67h4.97v4.96h-4.97z"/><path d="m9.94 34.71h4.97v4.96h-4.97z"/><path d="m9.94 29.75h4.97v4.96h-4.97z"/><path d="m9.94 24.79h4.97v4.96h-4.97z"/></g><path d="m9.94 19.83h4.97v4.96h-4.97z" fill="#5c519d"/><path d="m9.94 14.87h4.97v4.96h-4.97z" fill="#1d71b8"/><path d="m9.94 9.92h4.97v4.95h-4.97z" fill="#fff"/><path d="m9.94 4.96h4.97v4.96h-4.97z" fill="#1d71b8"/><path d="m9.94 0h4.97v4.96h-4.97z" fill="#5c519d"/><path d="m4.97 49.59h4.97v4.95h-4.97z" fill="#1d71b8"/><path d="m4.97 19.83h4.97v4.96h-4.97z" fill="#666"/><path d="m4.97 14.87h4.97v4.96h-4.97z" fill="#5c519d"/><path d="m4.97 9.92h4.97v4.95h-4.97z" fill="#1d71b8"/><path d="m4.97 4.96h4.97v4.96h-4.97z" fill="#5c519d"/><path d="m0 9.92h4.97v4.95h-4.97z" fill="#5c519d"/></svg>