<svg xmlns="http://www.w3.org/2000/svg" viewBox="0 0 103.89 83.11"><defs><style>.cls-1{fill:#8999b2;}.cls-2{fill:#272a44;}.cls-3{fill:#3e2731;}.cls-4{fill:#733d39;}.cls-5{fill:#394566;}.cls-6{fill:#d57643;}.cls-7{fill:#fcac34;}.cls-8{fill:#596986;}.cls-9{fill:#fce562;}</style></defs><g id="Layer_2" data-name="Layer 2"><g id="Layer_1-2" data-name="Layer 1"><rect class="cls-1" x="62.34" y="36.36" width="5.19" height="5.2"/><rect class="cls-2" x="5.19" y="57.14" width="20.78" height="5.19"/><rect class="cls-2" x="5.19" y="41.56" width="20.78" height="5.19"/><rect class="cls-2" x="5.19" y="31.17" width="20.78" height="5.2"/><rect class="cls-3" x="77.92" y="57.14" width="20.78" height="5.19"/><rect class="cls-3" x="25.97" y="57.14" width="25.97" height="5.19"/><rect class="cls-3" x="72.73" y="41.56" width="25.97" height="5.19"/><rect class="cls-3" x="72.73" y="31.17" width="25.97" height="5.2"/><polygon class="cls-3" points="25.97 31.17 25.97 36.36 51.95 36.36 51.95 41.56 25.97 41.56 25.97 46.75 57.14 46.75 57.14 31.17 25.97 31.17"/><rect class="cls-3" x="88.31" y="5.2" width="10.39" height="5.2"/><rect class="cls-3" x="46.75" y="5.2" width="31.17" height="5.2"/><rect class="cls-3" x="25.97" y="5.2" width="10.39" height="5.2"/><polygon class="cls-4" points="77.92 62.34 77.92 67.53 51.95 67.53 51.95 62.34 25.97 62.34 25.97 72.73 98.7 72.73 98.7 62.34 77.92 62.34"/><rect class="cls-4" x="77.92" y="46.75" width="20.78" height="10.39"/><rect class="cls-4" x="25.97" y="46.75" width="25.97" height="10.39"/><rect class="cls-4" x="72.73" y="36.36" width="25.97" height="5.2"/><rect class="cls-4" x="25.97" y="36.36" width="25.97" height="5.2"/><rect class="cls-4" x="88.31" y="10.39" width="10.39" height="10.39"/><rect class="cls-4" x="46.75" y="10.39" width="31.17" height="10.39"/><rect class="cls-4" x="25.97" y="10.39" width="10.39" height="10.39"/><rect class="cls-4" x="83.11" width="10.39" height="5.2"/><rect class="cls-4" x="41.56" width="31.17" height="5.2"/><rect class="cls-4" x="20.78" width="10.39" height="5.2"/><rect class="cls-5" x="5.19" y="62.34" width="20.78" height="10.39"/><rect class="cls-5" x="5.19" y="46.75" width="20.78" height="10.39"/><rect class="cls-5" x="5.19" y="36.36" width="20.78" height="5.2"/><polygon class="cls-5" points="20.78 0 10.39 0 10.39 5.2 5.19 5.2 5.19 20.78 25.97 20.78 25.97 5.2 20.78 5.2 20.78 0"/><rect class="cls-6" x="25.97" y="77.92" width="77.92" height="5.2"/><rect class="cls-6" x="51.95" y="46.75" width="5.2" height="20.78"/><polygon class="cls-6" points="72.73 62.34 72.73 51.95 62.34 51.95 62.34 57.14 67.53 57.14 67.53 62.34 72.73 62.34"/><polygon class="cls-6" points="25.97 25.97 25.97 31.17 57.14 31.17 57.14 36.36 72.73 36.36 72.73 31.17 103.89 31.17 103.89 25.97 25.97 25.97"/><rect class="cls-6" x="77.92" y="15.58" width="10.39" height="5.2"/><rect class="cls-6" x="36.36" y="15.58" width="10.39" height="5.2"/><rect class="cls-7" x="36.36" y="72.73" width="67.53" height="5.19"/><path class="cls-7" d="M57.14,41.56v26H77.92V46.75H72.73V41.56h-5.2v5.19H62.34V41.56ZM72.73,52V62.34H62.34V52Z"/><rect class="cls-7" x="36.36" y="20.78" width="67.53" height="5.2"/><rect class="cls-7" x="77.92" y="10.39" width="10.39" height="5.19"/><rect class="cls-7" x="36.36" y="10.39" width="10.39" height="5.19"/><rect class="cls-8" y="72.73" width="25.97" height="10.39"/><rect class="cls-8" x="62.34" y="41.56" width="5.19" height="5.19"/><rect class="cls-8" y="20.78" width="25.97" height="10.39"/><rect class="cls-9" x="25.97" y="72.73" width="10.39" height="5.19"/><rect class="cls-9" x="62.34" y="57.14" width="5.19" height="5.19"/><rect class="cls-9" x="67.53" y="36.36" width="5.2" height="5.2"/><rect class="cls-9" x="57.14" y="36.36" width="5.19" height="5.2"/><rect class="cls-9" x="25.97" y="20.78" width="10.39" height="5.2"/><polygon class="cls-9" points="77.92 10.39 88.31 10.39 88.31 5.2 83.11 5.2 83.11 0 72.73 0 72.73 5.2 77.92 5.2 77.92 10.39"/><polygon class="cls-9" points="36.36 10.39 46.75 10.39 46.75 5.2 41.56 5.2 41.56 0 31.17 0 31.17 5.2 36.36 5.2 36.36 10.39"/></g></g></svg>