<svg xmlns="http://www.w3.org/2000/svg" viewBox="0 0 80.78 72.26"><defs><style>.cls-1{fill:#fdd71d;}.cls-2{fill:#fda62f;}.cls-3{fill:#f27c25;}.cls-4{fill:#fdfd53;}.cls-5{fill:#fffdc7;}</style></defs><g id="Layer_2" data-name="Layer 2"><g id="Layer_1-2" data-name="Layer 1"><rect class="cls-1" x="25.24" y="9.64" width="5.05" height="38.54" transform="translate(55.53 57.81) rotate(180)"/><rect class="cls-1" x="30.29" y="4.82" width="5.05" height="48.18" transform="translate(65.63 57.81) rotate(180)"/><rect class="cls-1" x="35.34" y="4.82" width="5.05" height="48.18"/><rect class="cls-1" x="40.39" y="4.82" width="5.05" height="48.18"/><rect class="cls-1" x="45.44" y="4.82" width="5.05" height="48.18" transform="translate(95.92 57.81) rotate(180)"/><rect class="cls-1" x="50.49" y="9.64" width="5.05" height="38.54" transform="translate(106.02 57.81) rotate(180)"/><rect class="cls-1" x="20.19" y="9.64" width="5.05" height="38.54" transform="translate(45.44 57.81) rotate(180)"/><rect class="cls-1" x="55.53" y="9.64" width="5.05" height="38.54" transform="translate(116.12 57.81) rotate(180)"/><rect class="cls-1" x="15.15" y="14.45" width="5.05" height="28.91" transform="translate(35.34 57.81) rotate(180)"/><rect class="cls-1" x="60.58" y="14.45" width="5.05" height="28.91"/><rect class="cls-1" x="65.63" y="19.27" width="5.05" height="19.27" transform="translate(136.31 57.81) rotate(180)"/><rect class="cls-1" x="45.44" y="52.99" width="5.05" height="14.45" transform="translate(95.92 120.44) rotate(180)"/><rect class="cls-1" x="50.49" y="57.81" width="5.05" height="4.82" transform="translate(106.02 120.44) rotate(180)"/><rect class="cls-1" x="55.53" y="52.99" width="5.05" height="9.64" transform="translate(116.12 115.62) rotate(180)"/><rect class="cls-1" x="20.19" y="48.18" width="5.05" height="14.45" transform="translate(45.44 110.81) rotate(180)"/><rect class="cls-1" x="25.24" y="48.18" width="5.05" height="14.45" transform="translate(55.53 110.81) rotate(180)"/><rect class="cls-1" x="60.58" y="48.18" width="5.05" height="9.64" transform="translate(126.21 105.99) rotate(180)"/><rect class="cls-1" x="15.15" y="43.36" width="5.05" height="14.45" transform="translate(35.34 101.17) rotate(180)"/><rect class="cls-1" x="65.63" y="38.54" width="5.05" height="14.45" transform="translate(136.31 91.54) rotate(180)"/><rect class="cls-1" x="10.1" y="38.54" width="5.05" height="14.45" transform="translate(25.24 91.54) rotate(180)"/><rect class="cls-1" x="70.68" y="33.72" width="5.05" height="9.64" transform="translate(146.41 77.08) rotate(180)"/><rect class="cls-1" x="5.05" y="33.72" width="5.05" height="9.64" transform="translate(15.15 77.08) rotate(180)"/><rect class="cls-1" x="40.39" y="52.99" width="5.05" height="14.45" transform="translate(85.83 120.44) rotate(180)"/><rect class="cls-1" x="30.29" y="52.99" width="5.05" height="14.45"/><rect class="cls-1" x="35.34" y="52.99" width="5.05" height="14.45" transform="translate(75.73 120.44) rotate(180)"/><rect class="cls-1" x="10.1" y="19.27" width="5.05" height="19.27" transform="translate(25.24 57.81) rotate(180)"/><rect class="cls-2" x="22.83" y="2.18" width="4.82" height="10.1" transform="translate(18.02 32.47) rotate(-90)"/><rect class="cls-2" x="15.26" y="9.52" width="4.82" height="5.05" transform="translate(5.63 29.71) rotate(-90)"/><rect class="cls-3" x="25.36" y="19.16" width="4.82" height="5.05" transform="translate(6.09 49.45) rotate(-90)"/><rect class="cls-3" x="50.6" y="19.16" width="4.82" height="5.05" transform="translate(31.33 74.69) rotate(-90)"/><rect class="cls-2" x="50.6" y="48.06" width="4.82" height="5.05" transform="translate(2.42 103.59) rotate(-90)"/><rect class="cls-4" x="40.5" y="48.06" width="4.82" height="5.05" transform="translate(-7.67 93.5) rotate(-90)"/><rect class="cls-4" x="43.14" y="45.65" width="9.64" height="5.05" transform="translate(-0.22 96.14) rotate(-90)"/><rect class="cls-4" x="48.19" y="40.83" width="9.64" height="5.05" transform="translate(9.65 96.37) rotate(-90)"/><rect class="cls-4" x="53.24" y="36.02" width="9.64" height="5.05" transform="translate(19.52 96.6) rotate(-90)"/><rect class="cls-2" x="25.36" y="48.06" width="4.82" height="5.05" transform="translate(-22.82 78.35) rotate(-90)"/><rect class="cls-3" x="20.31" y="23.97" width="4.82" height="5.05" transform="translate(-3.78 49.22) rotate(-90)"/><rect class="cls-3" x="55.65" y="23.97" width="4.82" height="5.05" transform="translate(31.56 84.56) rotate(-90)"/><rect class="cls-1" x="70.8" y="28.79" width="4.82" height="5.05" transform="translate(41.89 104.52) rotate(-90)"/><rect class="cls-1" x="5.16" y="28.79" width="4.82" height="5.05" transform="translate(-23.74 38.89) rotate(-90)"/><rect class="cls-2" x="55.65" y="43.24" width="4.82" height="5.05" transform="translate(12.29 103.83) rotate(-90)"/><rect class="cls-2" x="45.55" y="19.16" width="4.82" height="5.05" transform="translate(26.28 69.64) rotate(-90)"/><rect class="cls-3" x="20.31" y="43.24" width="4.82" height="5.05" transform="translate(-23.05 68.49) rotate(-90)"/><rect class="cls-2" x="10.21" y="14.34" width="4.82" height="5.05" transform="translate(-4.24 29.48) rotate(-90)"/><rect class="cls-2" x="2.76" y="21.56" width="9.64" height="5.05" transform="translate(-16.52 31.66) rotate(-90)"/><rect class="cls-2" x="22.83" y="59.99" width="4.82" height="10.1" transform="translate(90.28 39.8) rotate(90)"/><rect class="cls-3" x="37.98" y="59.76" width="4.82" height="20.19" transform="translate(110.24 29.47) rotate(90)"/><rect class="cls-3" x="37.98" y="-7.69" width="4.82" height="20.19" transform="translate(42.8 -37.98) rotate(90)"/><rect class="cls-3" x="37.98" y="6.76" width="4.82" height="20.19" transform="translate(57.25 -23.53) rotate(90)"/><rect class="cls-2" x="37.98" y="45.31" width="4.82" height="20.19" transform="translate(95.79 15.01) rotate(90)"/><rect class="cls-2" x="15.26" y="57.7" width="4.82" height="5.05" transform="translate(77.89 42.55) rotate(90)"/><rect class="cls-2" x="10.21" y="52.88" width="4.82" height="5.05" transform="translate(68.02 42.78) rotate(90)"/><rect class="cls-2" x="2.76" y="45.65" width="9.64" height="5.05" transform="translate(55.75 40.6) rotate(90)"/><rect class="cls-2" x="-4.7" y="33.61" width="14.45" height="5.05" transform="translate(-33.61 38.66) rotate(-90)"/><rect class="cls-2" x="18.13" y="31.2" width="19.27" height="5.05" transform="translate(-5.96 61.49) rotate(-90)"/><rect class="cls-2" x="23.18" y="26.38" width="19.27" height="5.05" transform="translate(3.91 61.72) rotate(-90)"/><rect class="cls-2" x="30.64" y="23.97" width="14.45" height="5.05" transform="translate(11.37 64.36) rotate(-90)"/><rect class="cls-2" x="38.1" y="21.56" width="9.64" height="5.05" transform="translate(18.82 67) rotate(-90)"/><rect class="cls-2" x="15.49" y="33.61" width="14.45" height="5.05" transform="translate(-13.41 58.85) rotate(-90)"/><rect class="cls-3" x="10.44" y="33.61" width="14.45" height="5.05" transform="translate(-18.46 53.8) rotate(-90)"/><rect class="cls-2" x="55.88" y="33.61" width="14.45" height="5.05" transform="translate(26.97 99.24) rotate(-90)"/><rect class="cls-3" x="53.13" y="2.18" width="4.82" height="10.1" transform="translate(48.31 62.76) rotate(-90)"/><rect class="cls-3" x="60.7" y="9.52" width="4.82" height="5.05" transform="translate(51.06 75.15) rotate(-90)"/><rect class="cls-3" x="65.75" y="14.34" width="4.82" height="5.05" transform="translate(51.29 85.02) rotate(-90)"/><rect class="cls-3" x="68.39" y="21.56" width="9.64" height="5.05" transform="translate(49.12 97.29) rotate(-90)"/><rect class="cls-3" x="53.13" y="59.99" width="4.82" height="10.1" transform="translate(120.57 9.5) rotate(90)"/><rect class="cls-3" x="60.7" y="57.7" width="4.82" height="5.05" transform="translate(123.33 -2.89) rotate(90)"/><rect class="cls-3" x="65.75" y="52.88" width="4.82" height="5.05" transform="translate(123.56 -12.75) rotate(90)"/><rect class="cls-3" x="68.39" y="45.65" width="9.64" height="5.05" transform="translate(121.38 -25.03) rotate(90)"/><rect class="cls-3" x="71.03" y="33.61" width="14.45" height="5.05" transform="translate(42.12 114.38) rotate(-90)"/><rect class="cls-5" x="20.19" y="19.27" width="5.05" height="4.82" transform="translate(45.44 43.36) rotate(180)"/><rect class="cls-5" x="25.24" y="14.45" width="5.05" height="4.82" transform="translate(55.53 33.72) rotate(180)"/><rect class="cls-5" x="15.15" y="24.09" width="5.05" height="4.82" transform="translate(35.34 52.99) rotate(180)"/><rect class="cls-4" x="25.36" y="43.24" width="4.82" height="5.05" transform="translate(73.53 18) rotate(90)"/><rect class="cls-4" x="20.31" y="48.06" width="4.82" height="5.05" transform="translate(73.3 27.87) rotate(90)"/><rect class="cls-4" x="15.26" y="52.88" width="4.82" height="5.05" transform="translate(73.07 37.73) rotate(90)"/><rect class="cls-4" x="30.41" y="38.43" width="4.82" height="5.05" transform="translate(73.77 8.13) rotate(90)"/><rect class="cls-4" x="35.46" y="33.61" width="4.82" height="5.05" transform="translate(74 -1.73) rotate(90)"/><rect class="cls-4" x="40.5" y="28.79" width="4.82" height="5.05" transform="translate(74.23 -11.6) rotate(90)"/><rect class="cls-4" x="45.55" y="23.97" width="4.82" height="5.05" transform="translate(74.46 -21.46) rotate(90)"/><rect class="cls-4" x="55.65" y="14.34" width="4.82" height="5.05" transform="translate(74.92 -41.2) rotate(90)"/><rect class="cls-4" x="35.46" y="48.06" width="4.82" height="5.05" transform="translate(88.45 12.72) rotate(90)"/><rect class="cls-4" x="25.36" y="57.7" width="4.82" height="5.05" transform="translate(87.99 32.45) rotate(90)"/><rect class="cls-4" x="50.6" y="52.88" width="4.82" height="5.05" transform="translate(108.41 2.39) rotate(90)"/><rect class="cls-4" x="55.65" y="48.06" width="4.82" height="5.05" transform="translate(108.64 -7.47) rotate(90)"/><rect class="cls-4" x="60.7" y="43.24" width="4.82" height="5.05" transform="translate(108.87 -17.34) rotate(90)"/><rect class="cls-4" x="40.5" y="43.24" width="4.82" height="5.05" transform="translate(88.68 2.85) rotate(90)"/><rect class="cls-4" x="45.55" y="38.43" width="4.82" height="5.05" transform="translate(88.91 -7.01) rotate(90)"/><rect class="cls-4" x="50.6" y="33.61" width="4.82" height="5.05" transform="translate(89.14 -16.88) rotate(90)"/><rect class="cls-4" x="55.65" y="28.79" width="4.82" height="5.05" transform="translate(89.37 -26.74) rotate(90)"/><rect class="cls-4" x="65.75" y="19.16" width="4.82" height="5.05" transform="translate(89.83 -46.48) rotate(90)"/><rect class="cls-4" x="60.7" y="23.97" width="4.82" height="5.05" transform="translate(89.6 -36.61) rotate(90)"/></g></g></svg>