<svg xmlns="http://www.w3.org/2000/svg" viewBox="0 0 74.35 74.35"><defs><style>.cls-1{fill:#114f87;}.cls-2{fill:#eaeeef;}.cls-3{fill:#bec9da;}.cls-4{fill:#8999b2;}.cls-5{fill:#394566;}</style></defs><g id="Layer_2" data-name="Layer 2"><g id="Layer_1-2" data-name="Layer 1"><polygon class="cls-1" points="49.57 66.09 45.44 66.09 45.44 61.96 41.31 61.96 41.31 57.83 33.05 57.83 33.05 61.96 28.92 61.96 28.92 66.09 24.78 66.09 24.78 70.22 20.65 70.22 20.65 74.35 53.7 74.35 53.7 70.22 49.57 70.22 49.57 66.09"/><polygon class="cls-1" points="20.65 49.57 20.65 20.65 16.52 20.65 16.52 24.78 12.39 24.78 12.39 28.91 8.26 28.91 8.26 33.05 4.13 33.05 4.13 37.18 8.26 37.18 8.26 41.31 12.39 41.31 12.39 45.44 16.52 45.44 16.52 49.57 20.65 49.57"/><polygon class="cls-1" points="66.09 16.52 66.09 12.39 61.96 12.39 61.96 8.26 57.83 8.26 57.83 4.13 53.7 4.13 53.7 20.65 70.22 20.65 70.22 16.52 66.09 16.52"/><polygon class="cls-1" points="49.57 20.65 49.57 16.52 45.44 16.52 45.44 12.39 41.31 12.39 41.31 8.26 37.18 8.26 37.18 20.65 49.57 20.65"/><polygon class="cls-2" points="53.7 20.65 49.57 20.65 49.57 24.78 45.44 24.78 45.44 28.91 41.31 28.91 41.31 33.05 37.18 33.05 37.18 37.18 41.31 37.18 41.31 41.31 45.44 41.31 45.44 45.44 49.57 45.44 49.57 49.57 53.7 49.57 53.7 20.65"/><polygon class="cls-2" points="33.05 41.31 28.92 41.31 28.92 45.44 24.78 45.44 24.78 49.57 20.65 49.57 20.65 53.7 37.18 53.7 37.18 37.18 33.05 37.18 33.05 41.31"/><polygon class="cls-2" points="70.22 33.05 70.22 37.18 66.09 37.18 66.09 41.31 61.96 41.31 61.96 45.44 57.83 45.44 57.83 49.57 53.7 49.57 53.7 53.7 74.35 53.7 74.35 33.05 70.22 33.05"/><polygon class="cls-2" points="24.78 12.39 28.92 12.39 28.92 8.26 33.05 8.26 33.05 4.13 37.18 4.13 37.18 0 20.65 0 20.65 16.52 24.78 16.52 24.78 12.39"/><polygon class="cls-3" points="4.13 53.7 4.13 57.83 8.26 57.83 8.26 61.96 12.39 61.96 12.39 66.09 16.52 66.09 16.52 70.22 20.65 70.22 20.65 53.7 4.13 53.7"/><polygon class="cls-3" points="49.57 45.44 45.44 45.44 45.44 41.31 41.31 41.31 41.31 37.18 37.18 37.18 37.18 53.7 53.7 53.7 53.7 49.57 49.57 49.57 49.57 45.44"/><polygon class="cls-3" points="41.31 33.05 41.31 28.91 45.44 28.91 45.44 24.78 49.57 24.78 49.57 20.65 24.78 20.65 24.78 24.78 28.92 24.78 28.92 28.91 33.05 28.91 33.05 33.05 41.31 33.05"/><polygon class="cls-3" points="53.7 20.65 53.7 49.57 57.83 49.57 57.83 45.44 61.96 45.44 61.96 41.31 66.09 41.31 66.09 37.18 70.22 37.18 70.22 33.05 74.35 33.05 74.35 20.65 53.7 20.65"/><rect class="cls-3" x="20.65" y="16.52" width="4.13" height="4.13"/><rect class="cls-3" x="24.78" y="12.39" width="4.13" height="4.13"/><rect class="cls-3" x="28.92" y="8.26" width="4.13" height="4.13"/><rect class="cls-3" x="33.05" y="4.13" width="4.13" height="4.13"/><polygon class="cls-4" points="20.65 70.22 24.78 70.22 24.78 66.09 28.92 66.09 28.92 61.96 33.05 61.96 33.05 57.83 37.18 57.83 37.18 53.7 20.65 53.7 20.65 70.22"/><polygon class="cls-4" points="53.7 53.7 53.7 70.22 57.83 70.22 57.83 66.09 61.96 66.09 61.96 61.96 66.09 61.96 66.09 57.83 70.22 57.83 70.22 53.7 53.7 53.7"/><polygon class="cls-4" points="16.52 45.44 12.39 45.44 12.39 41.31 8.26 41.31 8.26 37.18 0 37.18 0 53.7 20.65 53.7 20.65 49.57 16.52 49.57 16.52 45.44"/><polygon class="cls-4" points="20.65 49.57 24.78 49.57 24.78 45.44 28.92 45.44 28.92 41.31 33.05 41.31 33.05 37.18 37.18 37.18 37.18 33.05 33.05 33.05 33.05 28.91 28.92 28.91 28.92 24.78 24.78 24.78 24.78 20.65 20.65 20.65 20.65 49.57"/><polygon class="cls-4" points="53.7 20.65 53.7 0 37.18 0 37.18 8.26 41.31 8.26 41.31 12.39 45.44 12.39 45.44 16.52 49.57 16.52 49.57 20.65 53.7 20.65"/><polygon class="cls-4" points="20.65 4.13 16.52 4.13 16.52 8.26 12.39 8.26 12.39 12.39 8.26 12.39 8.26 16.52 4.13 16.52 4.13 20.65 20.65 20.65 20.65 4.13"/><polygon class="cls-4" points="33.05 12.39 28.92 12.39 28.92 16.52 24.78 16.52 24.78 20.65 37.18 20.65 37.18 8.26 33.05 8.26 33.05 12.39"/><polygon class="cls-5" points="37.18 53.7 37.18 57.83 41.31 57.83 41.31 61.96 45.44 61.96 45.44 66.09 49.57 66.09 49.57 70.22 53.7 70.22 53.7 53.7 37.18 53.7"/><polygon class="cls-5" points="0 20.65 0 37.18 4.13 37.18 4.13 33.05 8.26 33.05 8.26 28.91 12.39 28.91 12.39 24.78 16.52 24.78 16.52 20.65 0 20.65"/></g></g></svg>